# xmcd CD database file
#
# Track frame offsets:
#	150
#	900
#	1650
#	2400
#	3150
#	3900
#	4650
#	5400
#	6150
#	6900
#	7650
#	8400
#	9150
#	9900
#	10650
#	11400
#	226208
#
# Disc length: 4440 seconds
#
# Revision: 1
# Processed by: cddbd v1.5.1PL0 Copyright (c) Steve Scherf et al.
# Submitted via: CDex 1.51
#
DISCID=6c115611
DTITLE=Helmut Lotti - My Tribute To The King
DYEAR=2002
DGENRE=Rhythmic Soul
TTITLE0=Suspicious Minds
TTITLE1=One Night With You
TTITLE2=You've Lost That Loving Feeling
TTITLE3=Return To Sender
TTITLE4=Crying In The Chapel
TTITLE5=Are You Lonesome Tonight
TTITLE6=Good Luck Charm
TTITLE7=Thank You
TTITLE8=Such A Night
TTITLE9=I Just Can't Help Believing
TTITLE10=Heartbreak Hotel
TTITLE11=In The Ghetto
TTITLE12=If You Were Mine
TTITLE13=What Now My Love
TTITLE14=Kiss Me Quick
TTITLE15=Love Me Tender
TTITLE16=Bonus
EXTD=YEAR: 2002
EXTT0=
EXTT1=
EXTT2=
EXTT3=
EXTT4=
EXTT5=
EXTT6=
EXTT7=
EXTT8=
EXTT9=
EXTT10=
EXTT11=
EXTT12=
EXTT13=
EXTT14=
EXTT15=
EXTT16=
PLAYORDER=
